<svg width="335" height="134" xmlns="http://www.w3.org/2000/svg" xmlns:xlink="http://www.w3.org/1999/xlink" overflow="hidden"><defs><clipPath id="clip0"><rect x="0" y="0" width="335" height="134"/></clipPath></defs><g clip-path="url(#clip0)"><rect x="0" y="0" width="335" height="134.033" fill="#FFFFFF"/><rect x="296.5" y="2.50064" width="19" height="19.0047" stroke="#000000" stroke-width="0.333665" stroke-miterlimit="8" fill="#D86363"/><rect x="296.5" y="41.5103" width="19" height="19.0047" stroke="#000000" stroke-width="0.333665" stroke-miterlimit="8" fill="#46B1E1"/><rect x="296.5" y="90.5226" width="19" height="19.0047" stroke="#000000" stroke-width="0.333665" stroke-miterlimit="8" fill="#2A659E"/><text font-family="Arial,Arial_MSFontService,sans-serif" font-weight="400" font-size="8.00996" transform="matrix(1 0 0 1.00025 278.126 34)">Unsafe / Failed</text><text font-family="Arial,Arial_MSFontService,sans-serif" font-weight="400" font-size="8.00996" transform="matrix(1 0 0 1.00025 290.221 73)">Safe but</text><text font-family="Arial,Arial_MSFontService,sans-serif" font-weight="400" font-size="8.00996" transform="matrix(1 0 0 1.00025 281.212 82)">Unsuccessful</text><text font-family="Arial,Arial_MSFontService,sans-serif" font-weight="400" font-size="8.00996" transform="matrix(1 0 0 1.00025 289.053 122)">Safe and</text><text font-family="Arial,Arial_MSFontService,sans-serif" font-weight="400" font-size="8.00996" transform="matrix(1 0 0 1.00025 285.717 131)">Successful</text><rect x="29.5" y="20.5051" width="19" height="41.0103" stroke="#000000" stroke-width="0.333665" stroke-miterlimit="8" fill="#46B1E1"/><rect x="62.5" y="2.50064" width="19" height="6.00148" stroke="#000000" stroke-width="0.333665" stroke-miterlimit="8" fill="#D86363"/><rect x="94.5" y="2.50064" width="19" height="42.0105" stroke="#000000" stroke-width="0.333665" stroke-miterlimit="8" fill="#D86363"/><rect x="126.5" y="2.50064" width="19" height="101.025" stroke="#000000" stroke-width="0.333665" stroke-miterlimit="8" fill="#D86363"/><rect x="158.5" y="2.50064" width="19" height="107.027" stroke="#000000" stroke-width="0.333665" stroke-miterlimit="8" fill="#D86363"/><rect x="209.5" y="2.50064" width="19" height="83.0206" stroke="#000000" stroke-width="0.333665" stroke-miterlimit="8" fill="#D86363"/><rect x="244.5" y="2.50064" width="19" height="30.0074" stroke="#000000" stroke-width="0.333665" stroke-miterlimit="8" fill="#D86363"/><rect x="29.5" y="2.50064" width="19" height="18.0044" stroke="#000000" stroke-width="0.333665" stroke-miterlimit="8" fill="#D86363"/><rect x="29.5" y="61.5154" width="19" height="60.0149" stroke="#000000" stroke-width="0.333665" stroke-miterlimit="8" fill="#2A659E"/><rect x="62.5" y="8.50212" width="19" height="18.0044" stroke="#000000" stroke-width="0.333665" stroke-miterlimit="8" fill="#46B1E1"/><rect x="62.5" y="26.5066" width="19" height="95.0237" stroke="#000000" stroke-width="0.333665" stroke-miterlimit="8" fill="#2A659E"/><rect x="94.5" y="44.5111" width="19" height="29.0072" stroke="#000000" stroke-width="0.333665" stroke-miterlimit="8" fill="#46B1E1"/><rect x="94.5" y="73.5183" width="19" height="48.0119" stroke="#000000" stroke-width="0.333665" stroke-miterlimit="8" fill="#2A659E"/><rect x="126.5" y="103.526" width="19" height="12.003" stroke="#000000" stroke-width="0.333665" stroke-miterlimit="8" fill="#46B1E1"/><rect x="126.5" y="115.529" width="19" height="6.00148" stroke="#000000" stroke-width="0.333665" stroke-miterlimit="8" fill="#2A659E"/><rect x="158.5" y="109.527" width="19" height="12.003" stroke="#000000" stroke-width="0.333665" stroke-miterlimit="8" fill="#46B1E1"/><rect x="209.5" y="85.5213" width="19" height="6.00148" stroke="#000000" stroke-width="0.333665" stroke-miterlimit="8" fill="#46B1E1"/><rect x="209.5" y="91.5228" width="19" height="30.0075" stroke="#000000" stroke-width="0.333665" stroke-miterlimit="8" fill="#2A659E"/><rect x="244.5" y="32.508" width="19" height="89.0222" stroke="#000000" stroke-width="0.333665" stroke-miterlimit="8" fill="#2A659E"/><text font-family="Cambria Math,Cambria Math_MSFontService,sans-serif" font-weight="400" font-size="9.34496" transform="matrix(1 0 0 1.00025 27.6511 132)">ğ‘˜</text><text font-family="Cambria Math,Cambria Math_MSFontService,sans-serif" font-weight="400" font-size="9.34496" transform="matrix(1 0 0 1.00025 35.6925 132)">=</text><text font-family="Arial,Arial_MSFontService,sans-serif" font-weight="400" font-size="9.34496" transform="matrix(1 0 0 1.00025 45.3688 132)">1</text><text font-family="Cambria Math,Cambria Math_MSFontService,sans-serif" font-weight="400" font-size="9.34496" transform="matrix(1 0 0 1.00025 57.5477 132)">ğ‘˜</text><text font-family="Cambria Math,Cambria Math_MSFontService,sans-serif" font-weight="400" font-size="9.34496" transform="matrix(1 0 0 1.00025 65.589 132)">=</text><text font-family="Arial,Arial_MSFontService,sans-serif" font-weight="400" font-size="9.34496" transform="matrix(1 0 0 1.00025 75.2653 132)">10</text><text font-family="Cambria Math,Cambria Math_MSFontService,sans-serif" font-weight="400" font-size="9.34496" transform="matrix(1 0 0 1.00025 91.0514 132)">ğ‘˜</text><text font-family="Cambria Math,Cambria Math_MSFontService,sans-serif" font-weight="400" font-size="9.34496" transform="matrix(1 0 0 1.00025 99.0927 132)">=</text><text font-family="Cambria Math,Cambria Math_MSFontService,sans-serif" font-weight="400" font-size="9.34496" transform="matrix(1 0 0 1.00025 106.1 132)"></text><text font-family="Aptos,Aptos_MSFontService,sans-serif" font-weight="400" font-size="9.34496" transform="matrix(1 0 0 1.00025 108.102 132)">25</text><text font-family="Cambria Math,Cambria Math_MSFontService,sans-serif" font-weight="400" font-size="9.34496" transform="matrix(1 0 0 1.00025 122.609 132)">ğ‘˜</text><text font-family="Cambria Math,Cambria Math_MSFontService,sans-serif" font-weight="400" font-size="9.34496" transform="matrix(1 0 0 1.00025 130.65 132)">=</text><text font-family="Arial,Arial_MSFontService,sans-serif" font-weight="400" font-size="9.34496" transform="matrix(1 0 0 1.00025 140.327 132)">40</text><text font-family="Cambria Math,Cambria Math_MSFontService,sans-serif" font-weight="400" font-size="9.34496" transform="matrix(1 0 0 1.00025 154.766 132)">ğ‘˜</text><text font-family="Cambria Math,Cambria Math_MSFontService,sans-serif" font-weight="400" font-size="9.34496" transform="matrix(1 0 0 1.00025 162.807 132)">=</text><text font-family="Arial,Arial_MSFontService,sans-serif" font-weight="400" font-size="9.34496" transform="matrix(1 0 0 1.00025 172.483 132)">50</text><text font-family="Arial,Arial_MSFontService,sans-serif" font-weight="400" font-size="9.34496" transform="matrix(1 0 0 1.00025 239.221 132)">BC (S)</text><path d="M23.5 2.50064 269.414 2.50075" stroke="#000000" stroke-width="0.333665" stroke-miterlimit="8" stroke-opacity="0.2" fill="none" fill-rule="evenodd"/><text font-family="Arial,Arial_MSFontService,sans-serif" font-weight="400" font-size="6.67497" transform="matrix(1 0 0 1.00025 2.05349 5)">100%</text><text font-family="Arial,Arial_MSFontService,sans-serif" font-weight="400" font-size="6.67497" transform="matrix(1 0 0 1.00025 5.59281 29)">80%</text><text font-family="Arial,Arial_MSFontService,sans-serif" font-weight="400" font-size="6.67497" transform="matrix(1 0 0 1.00025 5.59281 53)">60%</text><text font-family="Arial,Arial_MSFontService,sans-serif" font-weight="400" font-size="6.67497" transform="matrix(1 0 0 1.00025 5.59281 77)">40%</text><text font-family="Arial,Arial_MSFontService,sans-serif" font-weight="400" font-size="6.67497" transform="matrix(1 0 0 1.00025 5.59281 100)">20%</text><text font-family="Arial,Arial_MSFontService,sans-serif" font-weight="400" font-size="6.67497" transform="matrix(1 0 0 1.00025 9.29896 124)">0%</text><path d="M23.5 26.5066 269.414 26.5067" stroke="#000000" stroke-width="0.333665" stroke-miterlimit="8" stroke-opacity="0.2" fill="none" fill-rule="evenodd"/><path d="M23.5 50.5126 269.414 50.5127" stroke="#000000" stroke-width="0.333665" stroke-miterlimit="8" stroke-opacity="0.2" fill="none" fill-rule="evenodd"/><path d="M23.5 73.5183 269.414 73.5184" stroke="#000000" stroke-width="0.333665" stroke-miterlimit="8" stroke-opacity="0.2" fill="none" fill-rule="evenodd"/><path d="M23.5 97.5242 269.414 97.5243" stroke="#000000" stroke-width="0.333665" stroke-miterlimit="8" stroke-opacity="0.2" fill="none" fill-rule="evenodd"/><path d="M23.5 121.53 269.414 121.53" stroke="#000000" stroke-width="0.333665" stroke-miterlimit="8" stroke-opacity="0.2" fill="none" fill-rule="evenodd"/><text font-family="Cambria Math,Cambria Math_MSFontService,sans-serif" font-weight="400" font-size="9.34496" transform="matrix(1 0 0 1.00025 211.089 132)">ğœ‹</text><text font-family="Arial,Arial_MSFontService,sans-serif" font-weight="400" font-size="6.22997" transform="matrix(1 0 0 1.00025 216.795 133)">BC</text></g></svg>